<?xml version="1.0" encoding="iso-8859-1"?>
<!-- Generator: Adobe Illustrator 19.0.0, SVG Export Plug-In . SVG Version: 6.00 Build 0)  -->
<svg version="1.1" id="Layer_1" xmlns="http://www.w3.org/2000/svg" xmlns:xlink="http://www.w3.org/1999/xlink" x="0px" y="0px"
	 viewBox="0 0 512 512" style="enable-background:new 0 0 512 512;" xml:space="preserve">
<g>
	<g>
		<g>
			<path d="M204.801,256c0-4.719-3.814-8.533-8.533-8.533s-8.533,3.814-8.533,8.533v11.375c0,17.254-15.309,31.292-34.133,31.292
				s-34.133-14.037-34.133-31.292V256c0-4.719-3.814-8.533-8.533-8.533c-4.719,0-8.533,3.814-8.533,8.533v11.375
				c0,26.667,22.963,48.358,51.2,48.358s51.2-21.692,51.2-48.358V256z"/>
			<path d="M494.772,465.647l-1.135-13.38h-66.97c-4.719,0-8.533-3.814-8.533-8.533c0-4.719,3.814-8.533,8.533-8.533h65.527
				l-1.451-17.067h-81.143c-4.719,0-8.533-3.814-8.533-8.533s3.814-8.533,8.533-8.533h79.693L467.269,141.38
				c-1.894-22.221-19.806-38.98-41.677-38.98h-41.591V68.267C384.001,30.626,353.375,0,315.734,0
				c-37.641,0-68.267,30.626-68.267,68.267V102.4h-43.878c-20.471,0-37.299,14.763-40.943,34.935
				c-2.944-0.495-5.956-0.802-9.045-0.802c-28.237,0-51.2,21.692-51.2,48.358V204.8H69.496c-17.528,0-31.881,13.406-33.399,31.249
				L17.196,477.15c-0.777,9.131,2.065,17.724,7.996,24.183C31.429,508.109,40.679,512,50.578,512h206.046h0.017h196.463
				c11.511,0,22.639-4.915,30.524-13.491C491.734,489.685,495.805,477.705,494.772,465.647z M264.534,68.267
				c0-28.237,22.963-51.2,51.2-51.2c28.237,0,51.2,22.963,51.2,51.2V102.4h-102.4V68.267z M119.468,184.892
				c0-17.254,15.309-31.292,34.133-31.292c4.676,0,9.131,0.87,13.193,2.44c0.026,0.009,0.043,0.034,0.077,0.043
				c0.307,0.12,0.589,0.29,0.896,0.427c1.485,0.623,2.918,1.323,4.275,2.125c0.563,0.333,1.092,0.708,1.63,1.067
				c1.126,0.759,2.21,1.57,3.226,2.44c0.435,0.384,0.879,0.76,1.297,1.152c1.246,1.186,2.398,2.449,3.43,3.806
				c0.094,0.128,0.222,0.247,0.316,0.375c1.101,1.502,2.031,3.115,2.842,4.787c0.222,0.461,0.393,0.939,0.589,1.408
				c0.538,1.289,0.99,2.611,1.348,3.968c0.137,0.529,0.282,1.058,0.393,1.604c0.367,1.835,0.623,3.712,0.623,5.649V204.8h-68.267
				V184.892z M271.583,484.736c-0.759,1.783-1.741,3.465-3.063,4.907c-1.425,1.553-3.089,2.731-4.89,3.618
				c-1.971,0.973-4.113,1.51-6.357,1.604c-0.222,0.008-0.427,0.068-0.649,0.068H50.578c-5.137,0-9.813-1.877-12.817-5.146
				c-2.705-2.944-3.934-6.818-3.558-11.255l18.91-241.092c0.751-8.883,7.799-15.573,16.384-15.573h41.438h85.333h39.714
				c8.593,0,15.633,6.69,16.384,15.582l16.341,189.218h-63.906c-4.719,0-8.533,3.814-8.533,8.533s3.814,8.533,8.533,8.533h65.382
				l1.476,17.067h-49.792c-4.719,0-8.533,3.814-8.533,8.533s3.814,8.533,8.533,8.533h51.106
				C272.974,480.256,272.496,482.577,271.583,484.736z M384.001,161.075c0,38.221-30.626,69.325-68.267,69.325
				c-37.641,0-68.267-31.104-68.267-69.325V153.6c0-4.719,3.814-8.533,8.533-8.533s8.533,3.814,8.533,8.533v7.475
				c0,28.322,23.45,52.258,51.2,52.258c27.75,0,51.2-23.936,51.2-52.258V153.6c0-4.719,3.814-8.533,8.533-8.533
				s8.533,3.814,8.533,8.533V161.075z"/>
		</g>
	</g>
</g>
<g>
</g>
<g>
</g>
<g>
</g>
<g>
</g>
<g>
</g>
<g>
</g>
<g>
</g>
<g>
</g>
<g>
</g>
<g>
</g>
<g>
</g>
<g>
</g>
<g>
</g>
<g>
</g>
<g>
</g>
</svg>
